<?xml version="1.0" encoding="utf-8"?>
<!-- Generator: Adobe Illustrator 16.0.0, SVG Export Plug-In . SVG Version: 6.00 Build 0)  -->
<!DOCTYPE svg PUBLIC "-//W3C//DTD SVG 1.1//EN" "http://www.w3.org/Graphics/SVG/1.1/DTD/svg11.dtd">
<svg version="1.1" id="Layer_1" xmlns="http://www.w3.org/2000/svg" xmlns:xlink="http://www.w3.org/1999/xlink" x="0px" y="0px"
	 width="30px" height="30px" viewBox="0 0 30 30" enable-background="new 0 0 30 30" xml:space="preserve">
<path fill-rule="evenodd" clip-rule="evenodd" d="M15,30C6.716,30,0,23.284,0,14.999C0,6.715,6.716,0,15,0s15,6.715,15,14.999
	C30,23.284,23.284,30,15,30z M15,2C7.82,2,2,7.82,2,14.999C2,22.179,7.82,28,15,28s13-5.821,13-13.001C28,7.82,22.18,2,15,2z
	 M10.341,20.989l-1.331-1.33l4.659-4.66L9.01,10.342l1.331-1.332L15,13.669l4.658-4.659l1.332,1.332l-4.659,4.657l4.659,4.66
	l-1.332,1.33L15,16.331L10.341,20.989z"/>
</svg>
