<?xml version="1.0" encoding="utf-8"?>
<!-- Generator: Adobe Illustrator 16.0.0, SVG Export Plug-In . SVG Version: 6.00 Build 0)  -->
<!DOCTYPE svg PUBLIC "-//W3C//DTD SVG 1.1//EN" "http://www.w3.org/Graphics/SVG/1.1/DTD/svg11.dtd">
<svg version="1.1" id="Layer_1" xmlns="http://www.w3.org/2000/svg" xmlns:xlink="http://www.w3.org/1999/xlink" x="0px" y="0px"
	 width="30px" height="30px" viewBox="0 0 30 30" enable-background="new 0 0 30 30" xml:space="preserve">
<path fill-rule="evenodd" clip-rule="evenodd" d="M30,11.999V18h-3.394c-0.274,1.064-0.692,2.069-1.229,2.998l2.637,2.637
	l-4.38,4.38l-2.631-2.632c-0.93,0.54-1.938,0.962-3.004,1.237V30h-6v-3.394c-1.064-0.273-2.07-0.691-2.999-1.229l-2.637,2.637
	l-4.379-4.38l2.631-2.631C4.077,20.074,3.656,19.067,3.38,18H0v-6.001h3.38c0.299-1.158,0.781-2.239,1.391-3.234L2.007,6L6,2.007
	l2.77,2.77C9.764,4.171,10.843,3.691,12,3.393V0h6v3.393c1.064,0.275,2.07,0.693,2.998,1.229l2.637-2.637l4.38,4.38l-2.632,2.632
	c0.541,0.929,0.961,1.937,1.236,3.002H30z M22.78,8.68l2.314-2.314l-1.46-1.461L21.32,7.22c0,0-2.628-2.217-5.308-2.217
	C15.854,5.003,16,5,16,5V2h-2v3c0,0-3.377,0.299-5.374,2.295L6,4.669L4.669,6l2.626,2.627C5.33,10.592,5,14,5,14H2v2h3
	c0,0-0.012-0.165-0.012,0.021c0,2.459,2.231,5.3,2.231,5.3l-2.314,2.314l1.459,1.46L8.68,22.78c0,0,2.881,2.2,5.312,2.2
	C14.127,24.98,14,25,14,25v3h2v-3c0,0-0.131-0.015-0.002-0.015c2.533,0,5.322-2.205,5.322-2.205l2.314,2.314l1.46-1.46L22.78,21.32
	c0,0,2.224-2.921,2.224-5.323C25.004,15.848,25,16,25,16h3v-2h-3c0,0,0.025,0.155,0.01,0.017C24.635,10.703,22.78,8.68,22.78,8.68z
	 M15,21c-3.313,0-6-2.687-6-6s2.687-6,6-6s6,2.687,6,6S18.313,21,15,21z M15,11c-2.209,0-4,1.791-4,4s1.791,4,4,4s4-1.791,4-4
	S17.209,11,15,11z M8.626,7.295L8.631,7.3C8.631,7.3,8.596,7.295,8.626,7.295z M7.3,8.632L7.295,8.627
	C7.249,8.627,7.3,8.632,7.3,8.632z"/>
</svg>
